<?xml version="1.0" standalone="no"?>
<!DOCTYPE svg PUBLIC "-//W3C//DTD SVG 20010904//EN"
 "http://www.w3.org/TR/2001/REC-SVG-20010904/DTD/svg10.dtd">
<svg version="1.0" xmlns="http://www.w3.org/2000/svg"
 width="896.000000pt" height="1268.000000pt" viewBox="0 0 896.000000 1268.000000"
 preserveAspectRatio="xMidYMid meet">

<g transform="translate(0.000000,1268.000000) scale(0.100000,-0.100000)"
fill="#000000" stroke="none">
<path d="M2133 7974 c-33 -16 -63 -66 -63 -104 0 -55 57 -110 115 -110 68 0
123 68 111 135 -13 70 -99 112 -163 79z"/>
<path d="M2790 7600 c0 -103 1 -110 20 -110 19 0 20 7 20 110 0 103 -1 110
-20 110 -19 0 -20 -7 -20 -110z"/>
<path d="M2880 7599 c0 -100 2 -110 18 -107 14 3 18 17 22 76 l5 73 79 -80
c44 -44 83 -78 88 -75 4 3 8 54 8 115 0 90 -3 109 -15 109 -12 0 -15 -15 -15
-75 0 -41 -3 -75 -8 -75 -4 0 -41 34 -82 75 -41 41 -80 75 -87 75 -10 0 -13
-28 -13 -111z"/>
<path d="M3157 7703 c-4 -3 -7 -53 -7 -110 0 -96 1 -103 20 -103 18 0 20 7 20
75 0 41 3 75 6 75 4 0 39 -35 79 -77 96 -103 105 -100 105 42 0 98 -1 105 -20
105 -18 0 -20 -7 -20 -82 l-1 -83 -78 83 c-74 79 -90 90 -104 75z"/>
<path d="M3456 7689 c-23 -18 -26 -27 -26 -88 0 -60 3 -70 26 -92 22 -20 36
-24 90 -24 56 0 67 3 91 28 24 24 28 35 28 88 0 54 -3 64 -28 85 -38 33 -141
35 -181 3z m152 -25 c28 -19 31 -97 5 -126 -22 -24 -109 -25 -135 -1 -26 23
-25 96 2 123 25 25 95 27 128 4z"/>
<path d="M3739 7612 c59 -121 59 -122 74 -122 10 0 117 197 117 215 0 3 -8 5
-18 5 -12 0 -30 -25 -58 -82 l-41 -83 -42 83 c-30 61 -46 82 -61 82 -17 0 -14
-10 29 -98z"/>
<path d="M3994 7676 c-33 -33 -34 -37 -34 -110 0 -61 3 -76 15 -76 9 0 15 9
15 25 0 24 2 25 74 25 70 0 75 -1 78 -22 2 -13 11 -24 21 -26 16 -3 17 5 15
105 l-3 108 -73 3 c-72 3 -74 2 -108 -32z m146 -51 l0 -45 -75 0 c-67 0 -75 2
-75 19 0 10 9 30 21 45 18 22 28 26 75 26 l54 0 0 -45z"/>
<path d="M4212 7693 c2 -13 15 -19 45 -21 39 -3 43 -6 47 -35 3 -18 5 -57 3
-87 -2 -45 1 -55 16 -58 15 -3 17 6 17 87 l0 91 45 0 c38 0 45 3 45 20 0 19
-7 20 -111 20 -100 0 -110 -2 -107 -17z"/>
<path d="M4470 7600 c0 -103 1 -110 20 -110 19 0 20 7 20 110 0 103 -1 110
-20 110 -19 0 -20 -7 -20 -110z"/>
<path d="M4585 7687 c-34 -29 -44 -96 -22 -149 18 -43 66 -63 135 -55 67 7 92
40 92 118 0 50 -4 64 -25 84 -21 21 -33 25 -89 25 -53 0 -70 -4 -91 -23z m155
-27 c24 -24 27 -86 4 -118 -12 -18 -25 -22 -69 -22 -69 0 -85 15 -85 80 0 39
4 52 22 64 33 23 103 21 128 -4z"/>
<path d="M4840 7599 c0 -100 2 -110 18 -107 14 3 18 17 22 76 l5 73 79 -80
c44 -44 83 -78 88 -75 4 3 8 54 8 115 0 90 -3 109 -15 109 -12 0 -15 -15 -15
-75 0 -41 -3 -75 -8 -75 -4 0 -41 34 -82 75 -41 41 -80 75 -87 75 -10 0 -13
-28 -13 -111z"/>
<path d="M5127 7692 c-22 -24 -22 -76 -1 -93 10 -8 49 -16 88 -19 68 -5 71 -6
71 -30 0 -25 -2 -25 -87 -28 -69 -2 -88 -6 -88 -17 0 -12 18 -15 94 -15 87 0
96 2 110 22 21 30 20 51 -3 79 -16 20 -31 25 -93 29 -65 4 -73 7 -73 25 0 18
8 20 83 23 74 3 82 5 82 22 0 18 -7 20 -83 20 -69 0 -87 -3 -100 -18z"/>
<path d="M5490 7690 c-17 -17 -20 -33 -20 -110 0 -83 1 -90 20 -90 19 0 20 7
20 90 l0 90 70 0 c67 0 70 -1 76 -27 11 -42 -6 -58 -70 -61 -48 -3 -56 -6 -56
-22 0 -17 7 -20 50 -20 63 0 96 15 110 51 15 34 7 72 -20 99 -29 29 -151 29
-180 0z"/>
<path d="M5767 7598 c32 -61 63 -112 68 -111 9 0 112 195 114 216 1 4 -7 7
-16 7 -13 0 -29 -24 -53 -76 -19 -42 -38 -78 -42 -80 -4 -3 -26 31 -48 76 -30
60 -45 80 -60 80 -19 0 -14 -12 37 -112z"/>
<path d="M5970 7690 c0 -17 7 -20 45 -20 l45 0 0 -90 c0 -83 1 -90 20 -90 19
0 20 7 20 89 l0 90 42 3 c31 2 44 8 46 21 3 15 -7 17 -107 17 -104 0 -111 -1
-111 -20z"/>
<path d="M6392 7603 l3 -108 103 -3 c86 -2 102 0 102 13 0 12 -15 15 -85 15
l-85 0 0 95 c0 89 -1 95 -20 95 -20 0 -21 -5 -18 -107z"/>
<path d="M6620 7690 c0 -17 7 -20 45 -20 l45 0 0 -90 c0 -73 3 -90 15 -90 12
0 15 17 15 90 l0 90 45 0 c38 0 45 3 45 20 0 19 -7 20 -105 20 -98 0 -105 -1
-105 -20z"/>
<path d="M6870 7600 l0 -110 85 0 c80 0 88 2 110 26 20 22 25 37 25 81 0 47
-4 59 -29 84 -28 27 -34 29 -110 29 l-81 0 0 -110z m174 48 c19 -27 20 -61 5
-91 -17 -32 -28 -37 -86 -37 l-53 0 0 75 0 75 59 0 c51 0 62 -3 75 -22z"/>
<path d="M6217 7514 c-8 -8 1 -24 14 -24 5 0 9 7 9 15 0 15 -12 20 -23 9z"/>
<path d="M7130 7505 c0 -8 7 -15 15 -15 8 0 15 7 15 15 0 8 -7 15 -15 15 -8 0
-15 -7 -15 -15z"/>
</g>
</svg>
